<?xml version="1.0" encoding="utf-8"?>
<!-- Generator: Adobe Illustrator 17.1.0, SVG Export Plug-In . SVG Version: 6.00 Build 0)  -->
<!DOCTYPE svg PUBLIC "-//W3C//DTD SVG 1.1//EN" "http://www.w3.org/Graphics/SVG/1.1/DTD/svg11.dtd">
<svg version="1.1" xmlns="http://www.w3.org/2000/svg" xmlns:xlink="http://www.w3.org/1999/xlink" x="0px" y="0px"
	 viewBox="0 0 252.5 54" enable-background="new 0 0 252.5 54" xml:space="preserve">
<g id="UR_MOBILE_TM_1_" enable-background="new    ">
	<g id="UR_MOBILE_TM">
		<g>
			<path fill-rule="evenodd" clip-rule="evenodd" d="M55.4,7.2C50.5,2.7,44.1,0,37,0C22.1,0,10,12.1,10,27C6.8,37.6-0.1,46,0,45.9
				c6-2.6,13.4-1.3,17.3-0.5C22.2,50.7,29.2,54,37,54c14.9,0,27-12.1,27-27c0-0.4,0-0.7,0-1.1c0,0,0,0.1,0,0.1
				C67.2,15.3,74.1,6.9,74,7C67.2,9.9,58.6,8,55.4,7.2z M37,40c-7.2,0-13-5.8-13-13s5.8-13,13-13s13,5.8,13,13S44.2,40,37,40z
				 M93.1,33.9c0,0.8-0.1,1.6-0.3,2.2c-0.2,0.7-0.6,1.2-1,1.7c-0.4,0.5-0.9,0.8-1.6,1.1c-0.6,0.3-1.3,0.4-2.1,0.4S86.6,39.2,86,39
				c-0.6-0.3-1.1-0.6-1.6-1.1c-0.4-0.5-0.7-1-1-1.7c-0.2-0.7-0.3-1.4-0.3-2.2v-13h-4v13c0,1.3,0.2,2.5,0.6,3.6c0.4,1.1,1,2,1.8,2.8
				c0.8,0.8,1.7,1.4,2.8,1.9c1.1,0.4,2.4,0.7,3.8,0.7c1.4,0,2.6-0.2,3.8-0.7c1.1-0.4,2.1-1.1,2.8-1.9c0.8-0.8,1.4-1.7,1.8-2.8
				c0.4-1.1,0.6-2.3,0.6-3.6v-13h-4V33.9z M146.7,20.9c-0.1,0-0.2,0-0.4,0.1c-0.1,0-0.2,0.1-0.3,0.2c-0.1,0.1-0.2,0.2-0.2,0.4
				l-6.4,12c-0.2,0.3-0.3,0.7-0.5,1c-0.2,0.4-0.3,0.7-0.4,1.1c-0.1-0.3-0.3-0.7-0.4-1c-0.1-0.3-0.3-0.7-0.5-1l-6.5-12
				c-0.1-0.1-0.2-0.3-0.3-0.4c-0.1-0.1-0.2-0.2-0.3-0.2c-0.1,0-0.2-0.1-0.4-0.1c-0.1,0-0.3,0-0.5,0h-3v21.7h3.6v-14
				c0-0.3,0-0.6,0-0.9s0-0.6-0.1-1l6.6,12.3c0.2,0.3,0.3,0.5,0.6,0.7c0.2,0.2,0.5,0.2,0.8,0.2h0.6c0.3,0,0.6-0.1,0.8-0.2
				c0.2-0.2,0.4-0.4,0.6-0.7l6.6-12.3c0,0.3-0.1,0.6-0.1,0.9c0,0.3,0,0.6,0,0.9v14h3.6V20.9h-3C146.9,20.9,146.8,20.9,146.7,20.9z
				 M111.5,33.3c0.8-0.2,1.4-0.6,2-1c0.6-0.4,1.1-0.9,1.5-1.4c0.4-0.5,0.7-1.1,0.9-1.8c0.2-0.6,0.3-1.3,0.3-2.1
				c0-0.9-0.2-1.8-0.5-2.5s-0.8-1.4-1.5-2c-0.7-0.5-1.5-1-2.6-1.3c-1.1-0.3-2.3-0.5-3.8-0.5h-6.6v21.7h4v-8.5h1.7
				c0.4,0,0.7,0.1,0.9,0.2c0.2,0.1,0.4,0.3,0.6,0.6l4.6,6.9c0.2,0.3,0.4,0.5,0.6,0.6c0.2,0.1,0.5,0.2,0.9,0.2h3.6l-5.4-8
				C112.5,34.1,112,33.6,111.5,33.3z M109.9,30.9c-0.6,0.2-1.2,0.3-2,0.3h-2.5V24h2.6c1.5,0,2.6,0.3,3.3,0.9
				c0.7,0.6,1.1,1.4,1.1,2.5c0,0.6-0.1,1.1-0.3,1.5c-0.2,0.5-0.5,0.9-0.8,1.2C110.9,30.5,110.5,30.8,109.9,30.9z M172.3,23.8
				c-1-1-2.1-1.8-3.5-2.3c-1.4-0.6-2.8-0.8-4.5-0.8c-1.6,0-3.1,0.3-4.5,0.8c-1.4,0.6-2.5,1.3-3.5,2.3c-1,1-1.7,2.2-2.2,3.5
				c-0.5,1.4-0.8,2.8-0.8,4.4s0.3,3.1,0.8,4.4c0.5,1.4,1.3,2.5,2.2,3.5c1,1,2.1,1.8,3.5,2.3c1.4,0.6,2.9,0.8,4.5,0.8
				c1.6,0,3.1-0.3,4.5-0.8c1.3-0.6,2.5-1.3,3.5-2.3s1.7-2.2,2.2-3.5c0.5-1.4,0.8-2.8,0.8-4.4s-0.3-3.1-0.8-4.4
				C174,26,173.3,24.8,172.3,23.8z M170.7,35c-0.3,0.9-0.8,1.7-1.4,2.4c-0.6,0.7-1.3,1.2-2.2,1.5c-0.8,0.4-1.8,0.5-2.9,0.5
				c-1.1,0-2-0.2-2.9-0.5c-0.9-0.3-1.6-0.9-2.2-1.5c-0.6-0.7-1.1-1.5-1.4-2.4c-0.3-0.9-0.5-2-0.5-3.2c0-1.2,0.2-2.3,0.5-3.2
				c0.3-0.9,0.8-1.7,1.4-2.4c0.6-0.7,1.3-1.2,2.2-1.5c0.8-0.3,1.8-0.5,2.9-0.5c1.1,0,2,0.2,2.9,0.5c0.8,0.4,1.6,0.9,2.2,1.5
				c0.6,0.7,1,1.5,1.4,2.4s0.5,2,0.5,3.2C171.2,32.9,171.1,34,170.7,35z M223,42.6h13.7v-3.2h-9.6v-6.1h7.6v-3.1h-7.6v-6h9.6v-3.2
				H223V42.6z M243.9,21.9h1.3v3.7h0.8v-3.7h1.3v-0.7h-3.4V21.9z M211.5,20.9h-4v21.7h12.7v-3.3h-8.7V20.9z M190.1,31.4
				c0.7-0.2,1.2-0.5,1.7-0.8c0.5-0.3,0.9-0.7,1.2-1.1c0.3-0.4,0.5-0.8,0.7-1.3c0.1-0.5,0.2-1,0.2-1.5c0-0.9-0.2-1.7-0.4-2.4
				c-0.3-0.7-0.8-1.3-1.4-1.8c-0.6-0.5-1.5-0.9-2.5-1.2c-1-0.3-2.2-0.4-3.6-0.4h-7.5v21.7h8.2c1.3,0,2.4-0.2,3.4-0.5
				c1-0.3,1.8-0.8,2.5-1.3c0.7-0.6,1.2-1.2,1.5-2c0.3-0.8,0.5-1.6,0.5-2.6C194.6,33.7,193.1,32.1,190.1,31.4z M182.6,24h3.5
				c1.4,0,2.4,0.2,3,0.7c0.6,0.5,1,1.3,1,2.4c0,1.1-0.4,1.9-1.1,2.4c-0.7,0.5-1.8,0.8-3.1,0.8h-3.2V24z M190.4,37.4
				c-0.1,0.4-0.4,0.8-0.7,1.1c-0.3,0.3-0.7,0.5-1.2,0.7c-0.5,0.2-1.1,0.3-1.9,0.3h-4.1v-6.4h4.1c0.7,0,1.3,0.1,1.8,0.2
				c0.5,0.1,0.9,0.3,1.2,0.6c0.3,0.3,0.6,0.6,0.7,1c0.2,0.4,0.2,0.8,0.2,1.3C190.6,36.6,190.6,37,190.4,37.4z M198.6,42.6h4V20.9h-4
				V42.6z M251.9,21.3C251.9,21.3,251.8,21.3,251.9,21.3c-0.1,0-0.1,0-0.2,0c0,0,0,0-0.1,0s0,0,0,0.1l-1.3,2.4
				c0,0.1-0.1,0.1-0.1,0.2c0,0.1-0.1,0.1-0.1,0.2c0-0.1-0.1-0.1-0.1-0.2c0-0.1-0.1-0.1-0.1-0.2l-1.3-2.4c0,0,0-0.1-0.1-0.1
				s0,0-0.1,0s0,0-0.1,0c0,0-0.1,0-0.1,0h-0.6v4.3h0.7v-2.8c0-0.1,0-0.1,0-0.2s0-0.1,0-0.2l1.3,2.5c0,0.1,0.1,0.1,0.1,0.1
				c0,0,0.1,0,0.2,0h0.1c0.1,0,0.1,0,0.2,0c0,0,0.1-0.1,0.1-0.1l1.3-2.5c0,0.1,0,0.1,0,0.2c0,0.1,0,0.1,0,0.2v2.8h0.7v-4.3H251.9z"
				/>
		</g>
	</g>
</g>
<g id="Shape_3_1_" enable-background="new    ">
</g>
<g id="mediapassTM_1_" enable-background="new    ">
</g>
</svg>
