<?xml version="1.0" encoding="utf-8"?>
<!-- Generator: Adobe Illustrator 17.1.0, SVG Export Plug-In . SVG Version: 6.00 Build 0)  -->
<!DOCTYPE svg PUBLIC "-//W3C//DTD SVG 1.1//EN" "http://www.w3.org/Graphics/SVG/1.1/DTD/svg11.dtd">
<svg version="1.1" xmlns="http://www.w3.org/2000/svg" xmlns:xlink="http://www.w3.org/1999/xlink" x="0px" y="0px"
	 viewBox="0 0 117 66" enable-background="new 0 0 117 66" xml:space="preserve">
<g id="UR_MOBILE_TM_1_" enable-background="new    ">
</g>
<g id="Shape_3_1_" enable-background="new    ">
	<g id="Shape_3">
		<g>
			<path fill-rule="evenodd" clip-rule="evenodd" d="M47.6,56h5V35h-5V56z M40.4,38.8c1.2-0.7,2.1-1.5,2.7-2.5
				c0.6-1,0.9-2.3,0.9-3.8c0-1.4-0.2-2.6-0.6-3.6c-0.4-1-1-1.7-1.7-2.3c-0.7-0.6-1.6-1-2.7-1.3c-1-0.3-2.2-0.4-3.5-0.4H22.9v30.3
				h12.9c1.2,0,2.4-0.2,3.5-0.5c1.1-0.3,2.1-0.9,3-1.6c0.9-0.7,1.6-1.6,2.1-2.7c0.5-1.1,0.8-2.4,0.8-4c0-1.9-0.4-3.5-1.2-4.9
				C43.3,40.3,42,39.4,40.4,38.8z M28.8,30.2h5.5c0.5,0,1,0,1.5,0.1c0.5,0.1,0.9,0.3,1.3,0.5s0.7,0.6,0.9,1.1c0.2,0.5,0.3,1,0.3,1.7
				c0,1.3-0.3,2.2-1,2.8c-0.7,0.6-1.5,0.8-2.6,0.8h-5.9V30.2z M39.1,48.1c-0.2,0.5-0.6,0.9-1,1.2c-0.4,0.3-0.9,0.5-1.4,0.6
				c-0.5,0.1-1.1,0.2-1.6,0.2h-6.3v-8.3h6.4c1.3,0,2.3,0.3,3.1,1c0.8,0.7,1.2,1.8,1.2,3.3C39.4,46.9,39.3,47.6,39.1,48.1z M18.5,37
				c-0.8-1.2-1.9-2.2-3.2-2.9C14,33.4,12.4,33,10.7,33c-1.6,0-3,0.3-4.3,0.9c-1.3,0.6-2.4,1.4-3.4,2.4c-0.9,1-1.7,2.2-2.2,3.7
				C0.3,41.4,0,42.9,0,44.5c0,1.7,0.2,3.2,0.7,4.6c0.5,1.4,1.2,2.6,2.1,3.6c0.9,1,2,1.8,3.4,2.3C7.5,55.7,9,56,10.7,56
				c2.4,0,4.4-0.6,6.1-1.7c1.7-1.1,2.9-3,3.7-5.6h-5c-0.2,0.7-0.7,1.3-1.5,1.9c-0.8,0.6-1.8,0.9-3,0.9c-1.6,0-2.9-0.4-3.7-1.3
				C6.3,49.3,6,48.9,6,47h14.9c0.1-1.7-0.1-4.3-0.4-5.9C20,39.6,19.4,38.2,18.5,37z M5.6,43c0-0.1,0.2-1.3,0.4-2.3
				c0.1-0.5,0.4-1,0.8-1.5c0.4-0.5,0.8-0.9,1.5-1.2c0.6-0.3,1.4-0.5,2.3-0.5c1.4,0,2.4,0.4,3.1,1.2c0.7,0.8,2,2.8,2.2,4.3L5.6,43z
				 M50.1,25c-1.9,0-3.5,1.6-3.5,3.5s1.6,3.5,3.5,3.5c1.9,0,3.5-1.6,3.5-3.5S52,25,50.1,25z M56.5,25l6.9-7l-7.9,5L56.5,25z
				 M89,28.8h-5.3v21.5c0,1.1,0.1,2.2,0.4,2.9c0.3,0.7,0.8,1.4,1.2,1.9c0.5,0.5,1.3,1.1,2.1,1.2c0.7,0.1,1.5,0.2,2.3,0.2
				c0.5,0,1.1,0,1.6,0c0.5,0,3-1.1,3.5-1.2v-4.7c-0.2,0.1-2.5,1.1-2.8,1.1c-0.3,0-0.6,0-0.9,0c-0.9,0-1.5-0.2-1.8-0.5
				c-0.3-0.3-0.4-2-0.4-3v-8.9h5.9v-5H89V28.8z M75.4,56h5V35h-5V56z M111.5,34.4l-4.2,15h-0.1l-4.4-15h-5.6L104,55
				c0.1,0.4,0.2,0.9,0.2,1.4c0,0.7-0.2,3.2-0.5,3.8c-0.3,0.5-0.9,0.8-1.6,0.9c-0.5,0-2,0-2.6,0c-0.5-0.1-1-0.1-1.5-0.2v5
				c0.5,0.1,1.1,0.1,1.6,0.1c0.5,0,2.1,0.1,2.6,0.1c1.8,0,3.2-0.4,4.3-1.1c1-0.8,1.8-2,2.4-3.8l8.1-26.7H111.5z M56.5,56h5.3V28
				h-5.3V56z M50.6,7h-1l-1,14h3L50.6,7z M79.3,30c0-0.5,0-1,0-1.5C79.3,12.8,66.7,0,51.1,0c-13,0-24,8.9-27.3,21h4.1
				c3.1-9.9,12.3-17,23.1-17c13.4,0,24.3,11,24.3,24.5c0,0.5,0,1,0,1.5H79.3z M66.1,56h5.3V28h-5.3V56z"/>
		</g>
	</g>
</g>
<g id="mediapassTM_1_" enable-background="new    ">
</g>
</svg>
